<?xml version="1.0" encoding="utf-8"?>
<!-- Svg Vector Icons : http://www.onlinewebfonts.com/icon -->
<!DOCTYPE svg PUBLIC "-//W3C//DTD SVG 1.1//EN" "http://www.w3.org/Graphics/SVG/1.1/DTD/svg11.dtd">
<svg version="1.1" xmlns="http://www.w3.org/2000/svg" xmlns:xlink="http://www.w3.org/1999/xlink" x="0px" y="0px" viewBox="0 0 256 256" enable-background="new 0 0 256 256" xml:space="preserve">
<metadata> Svg Vector Icons : http://www.onlinewebfonts.com/icon </metadata>
<g><g><path fill="#000000" d="M75.9,140.1l-8.3,48.3l47.7-8.2l0.6-0.1L237.7,58.3c5.3-5.3,8.3-12.5,8.3-20c0-15.6-12.7-28.3-28.3-28.3c-7.6,0-14.7,2.9-20,8.3L76.3,139.6L75.9,140.1z M207.9,28.5c2.6-2.6,6.1-4.1,9.8-4.1c7.7,0,13.9,6.2,13.9,13.9c0,3.7-1.4,7.2-4.1,9.8l-5.4,5.4L202.4,34L207.9,28.5z M89,150L192.2,44.2l19.6,19.6L106,167l-20.4,3.5L89,150z"/><path fill="#000000" d="M238.8,89.1c-4,0-7.2,3.2-7.2,7.2v116c0,10.6-8.6,19.2-19.2,19.2H43.6c-10.6,0-19.2-8.6-19.2-19.2V43.6c0-10.6,8.6-19.2,19.2-19.2h116c4,0,7.2-3.2,7.2-7.2c0-4-3.2-7.2-7.2-7.2h-116C25.1,10,10,25.1,10,43.6v168.8c0,18.5,15.1,33.6,33.6,33.6h168.8c18.5,0,33.6-15.1,33.6-33.6v-116C246,92.4,242.8,89.1,238.8,89.1z"/></g></g>
</svg>